<?xml version="1.0" encoding="UTF-8" standalone="no"?>
<!-- Created with Inkscape (http://www.inkscape.org/) -->

<svg
   xmlns:dc="http://purl.org/dc/elements/1.1/"
   xmlns:cc="http://creativecommons.org/ns#"
   xmlns:rdf="http://www.w3.org/1999/02/22-rdf-syntax-ns#"
   xmlns:svg="http://www.w3.org/2000/svg"
   xmlns="http://www.w3.org/2000/svg"
   version="1.1"
   width="300.04999"
   height="87.9375"
   id="svg2"
   xml:space="preserve"><metadata
     id="metadata8"><rdf:RDF><cc:Work
         rdf:about=""><dc:format>image/svg+xml</dc:format><dc:type
           rdf:resource="http://purl.org/dc/dcmitype/StillImage" /><dc:title></dc:title></cc:Work></rdf:RDF></metadata><defs
     id="defs6" /><g
     transform="matrix(1.25,0,0,-1.25,0,87.9375)"
     id="g10"><path
       d="m 16.1145,36.5281 2.9718,0 0,-11.6629 7.1,0 0,-2.5566 -10.0718,0 0,14.2195"
       id="path14"
       style="fill:#005ea8;fill-opacity:1;fill-rule:nonzero;stroke:none" /><path
       d="m 31.293,30.2355 c -0.3891,-0.4 -0.6328,-0.9425 -0.7328,-1.6277 l 4.7363,0 c -0.0492,0.7301 -0.293,1.284 -0.7317,1.6621 -0.4382,0.377 -0.982,0.5664 -1.63,0.5664 -0.7075,0 -1.2539,-0.2 -1.6418,-0.6008 z m 4.1117,2.3754 c 0.734,-0.3281 1.3394,-0.8472 1.8176,-1.5558 0.432,-0.6242 0.7101,-1.3496 0.8379,-2.1742 0.0746,-0.4829 0.1046,-1.1782 0.0914,-2.0864 l -7.6594,0 c 0.043,-1.0547 0.4094,-1.7945 1.1008,-2.2183 0.4191,-0.2637 0.9242,-0.3965 1.5148,-0.3965 0.627,0 1.136,0.1609 1.527,0.4824 0.2129,0.1738 0.4023,0.4152 0.566,0.7242 l 2.8066,0 c -0.0734,-0.6242 -0.414,-1.2578 -1.0195,-1.9008 -0.9414,-1.0226 -2.2609,-1.5339 -3.9551,-1.5339 -1.4004,0 -2.634,0.4312 -3.7043,1.2933 -1.0695,0.8637 -1.6055,2.2664 -1.6055,4.2106 0,1.8215 0.484,3.2183 1.4504,4.1898 0.9649,0.9719 2.2188,1.4582 3.7598,1.4582 0.9145,0 1.7387,-0.164 2.4715,-0.4926"
       id="path16"
       style="fill:#005ea8;fill-opacity:1;fill-rule:nonzero;stroke:none" /><path
       d="m 40.1527,32.8238 2.7883,0 0,-10.5152 -2.7883,0 0,10.5152 z m 2.7883,1.2543 -2.7883,0 0,2.5371 2.7883,0 0,-2.5371"
       id="path18"
       style="fill:#005ea8;fill-opacity:1;fill-rule:nonzero;stroke:none" /><path
       d="m 52.8766,25.1543 c 0.3968,0.5723 0.5941,1.3254 0.5941,2.2578 0,0.7457 -0.098,1.3633 -0.2922,1.8516 -0.3695,0.9261 -1.0508,1.3894 -2.0418,1.3894 -1.0054,0 -1.6969,-0.4535 -2.0722,-1.3601 -0.195,-0.4825 -0.2918,-1.1059 -0.2918,-1.8711 0,-0.9008 0.2019,-1.6465 0.6035,-2.2387 0.4019,-0.5914 1.0144,-0.8871 1.8371,-0.8871 0.714,0 1.2687,0.2859 1.6633,0.8582 z m 2.2976,6.4062 c 0.7887,-0.9976 1.1809,-2.2835 1.1809,-3.8593 0,-1.6336 -0.3879,-2.9871 -1.1637,-4.061 -0.7758,-1.0742 -1.8578,-1.6109 -3.2484,-1.6109 -0.8727,0 -1.5739,0.173 -2.1051,0.5199 -0.3152,0.2067 -0.6582,0.5668 -1.027,1.0817 l 0,-1.3223 -2.7093,0 0,14.2004 2.7476,0 0,-5.0547 c 0.3504,0.4883 0.7336,0.8617 1.1559,1.1184 0.4992,0.3222 1.1332,0.4832 1.9031,0.4832 1.391,0 2.4805,-0.4993 3.266,-1.4954"
       id="path20"
       style="fill:#005ea8;fill-opacity:1;fill-rule:nonzero;stroke:none" /><path
       d="m 67.3367,32.2207 c 0.6891,-0.5691 1.0328,-1.5133 1.0328,-2.8309 l 0,-7.0812 -2.8172,0 0,6.3965 c 0,0.5523 -0.0722,0.9769 -0.2203,1.2726 -0.2679,0.5403 -0.7789,0.811 -1.5324,0.811 -0.925,0 -1.5598,-0.3961 -1.9051,-1.1871 -0.1793,-0.418 -0.2683,-0.9516 -0.2683,-1.6012 l 0,-5.6918 -2.75,0 0,10.4961 2.6633,0 0,-1.5344 c 0.3527,0.5402 0.6855,0.9293 1,1.1676 0.5625,0.425 1.2765,0.6367 2.1414,0.6367 1.0824,0 1.9683,-0.2844 2.6558,-0.8539"
       id="path22"
       style="fill:#005ea8;fill-opacity:1;fill-rule:nonzero;stroke:none" /><path
       d="m 71.5563,32.8238 2.7878,0 0,-10.5152 -2.7878,0 0,10.5152 z m 2.7878,1.2543 -2.7878,0 0,2.5371 2.7878,0 0,-2.5371"
       id="path24"
       style="fill:#005ea8;fill-opacity:1;fill-rule:nonzero;stroke:none" /><path
       d="m 77.002,30.5859 0,2.2379 8.3156,0 0,-2.2867 -5.1598,-5.9707 5.3434,0 0,-2.2578 -8.8657,0 0,2.1418 5.2125,6.1355 -4.846,0"
       id="path26"
       style="fill:#005ea8;fill-opacity:1;fill-rule:nonzero;stroke:none" /><path
       d="m 87.2406,26.5148 5.38398,0 0,2.6043 -5.38398,0 0,-2.6043 z"
       id="path28"
       style="fill:#005ea8;fill-opacity:1;fill-rule:nonzero;stroke:none" /><path
       d="m 95.2047,22.3086 2.95156,0 0,14.2195 -2.95156,0 0,-14.2195 z"
       id="path30"
       style="fill:#005ea8;fill-opacity:1;fill-rule:nonzero;stroke:none" /><path
       d="m 109.786,32.2207 c 0.687,-0.5691 1.031,-1.5133 1.031,-2.8309 l 0,-7.0812 -2.817,0 0,6.3965 c 0,0.5523 -0.073,0.9769 -0.219,1.2726 -0.269,0.5403 -0.78,0.811 -1.532,0.811 -0.926,0 -1.561,-0.3961 -1.907,-1.1871 -0.178,-0.418 -0.267,-0.9516 -0.267,-1.6012 l 0,-5.6918 -2.75,0 0,10.4961 2.663,0 0,-1.5344 c 0.351,0.5402 0.685,0.9293 0.999,1.1676 0.562,0.425 1.276,0.6367 2.141,0.6367 1.083,0 1.968,-0.2844 2.658,-0.8539"
       id="path32"
       style="fill:#005ea8;fill-opacity:1;fill-rule:nonzero;stroke:none" /><path
       d="m 116.098,25.666 c 0.059,-0.4898 0.184,-0.8363 0.378,-1.0426 0.344,-0.3664 0.977,-0.5492 1.899,-0.5492 0.544,0 0.976,0.0801 1.295,0.2406 0.321,0.161 0.481,0.402 0.481,0.7235 0,0.3094 -0.13,0.5437 -0.387,0.7051 -0.258,0.1605 -1.217,0.4363 -2.877,0.8293 -1.195,0.2949 -2.036,0.6656 -2.525,1.1089 -0.489,0.4375 -0.733,1.068 -0.733,1.8911 0,0.9714 0.381,1.8058 1.145,2.5031 0.764,0.6976 1.838,1.0472 3.225,1.0472 1.314,0 2.384,-0.2621 3.213,-0.7863 0.83,-0.5242 1.304,-1.4297 1.427,-2.716 l -2.75,0 c -0.039,0.3539 -0.139,0.6336 -0.299,0.8395 -0.303,0.3726 -0.82,0.5593 -1.548,0.5593 -0.6,0 -1.027,-0.0933 -1.282,-0.2793 -0.255,-0.1867 -0.381,-0.405 -0.381,-0.6562 0,-0.3152 0.135,-0.5434 0.406,-0.6852 0.269,-0.1472 1.227,-0.4015 2.87,-0.7617 1.095,-0.257 1.916,-0.6465 2.463,-1.1676 0.541,-0.5269 0.81,-1.1863 0.81,-1.9773 0,-1.0418 -0.388,-1.8926 -1.166,-2.5524 -0.775,-0.6582 -1.976,-0.9882 -3.597,-0.9882 -1.659,0 -2.881,0.3492 -3.67,1.0464 -0.79,0.6985 -1.185,1.5879 -1.185,2.668 l 2.788,0"
       id="path34"
       style="fill:#005ea8;fill-opacity:1;fill-rule:nonzero;stroke:none" /><path
       d="m 124.446,30.7691 0,1.9586 1.467,0 0,2.9325 2.72,0 0,-2.9325 1.707,0 0,-1.9586 -1.707,0 0,-5.5566 c 0,-0.4312 0.055,-0.6996 0.164,-0.8055 0.11,-0.1066 0.444,-0.1593 1.002,-0.1593 0.084,0 0.173,0.0011 0.267,0.0046 0.093,0.0036 0.184,0.0086 0.274,0.0145 l 0,-2.0543 -1.301,-0.0488 c -1.3,-0.0446 -2.188,0.1801 -2.664,0.6758 -0.307,0.3144 -0.462,0.8007 -0.462,1.4566 l 0,6.473 -1.467,0"
       id="path36"
       style="fill:#005ea8;fill-opacity:1;fill-rule:nonzero;stroke:none" /><path
       d="m 132.717,32.8238 2.789,0 0,-10.5152 -2.789,0 0,10.5152 z m 2.789,1.2543 -2.789,0 0,2.5371 2.789,0 0,-2.5371"
       id="path38"
       style="fill:#005ea8;fill-opacity:1;fill-rule:nonzero;stroke:none" /><path
       d="m 137.681,30.7691 0,1.9586 1.466,0 0,2.9325 2.721,0 0,-2.9325 1.708,0 0,-1.9586 -1.708,0 0,-5.5566 c 0,-0.4312 0.054,-0.6996 0.164,-0.8055 0.108,-0.1066 0.443,-0.1593 1.002,-0.1593 0.084,0 0.174,0.0011 0.266,0.0046 0.093,0.0036 0.185,0.0086 0.276,0.0145 l 0,-2.0543 -1.304,-0.0488 c -1.299,-0.0446 -2.186,0.1801 -2.662,0.6758 -0.309,0.3144 -0.463,0.8007 -0.463,1.4566 l 0,6.473 -1.466,0"
       id="path40"
       style="fill:#005ea8;fill-opacity:1;fill-rule:nonzero;stroke:none" /><path
       d="m 148.653,32.8238 0,-6.3383 c 0,-0.5984 0.07,-1.048 0.211,-1.3507 0.25,-0.5332 0.738,-0.8008 1.468,-0.8008 0.934,0 1.575,0.3801 1.92,1.1387 0.179,0.4121 0.268,0.9554 0.268,1.6304 l 0,5.7207 2.789,0 0,-10.5152 -2.673,0 0,1.4855 c -0.026,-0.032 -0.089,-0.1285 -0.192,-0.289 -0.102,-0.161 -0.225,-0.3028 -0.365,-0.4246 -0.429,-0.386 -0.844,-0.6496 -1.246,-0.791 -0.401,-0.1415 -0.87,-0.2118 -1.409,-0.2118 -1.551,0 -2.597,0.5586 -3.136,1.6782 -0.301,0.6171 -0.452,1.5273 -0.452,2.7296 l 0,6.3383 2.817,0"
       id="path42"
       style="fill:#005ea8;fill-opacity:1;fill-rule:nonzero;stroke:none" /><path
       d="m 157.494,30.7691 0,1.9586 1.465,0 0,2.9325 2.721,0 0,-2.9325 1.708,0 0,-1.9586 -1.708,0 0,-5.5566 c 0,-0.4312 0.054,-0.6996 0.164,-0.8055 0.109,-0.1066 0.444,-0.1593 1.003,-0.1593 0.083,0 0.173,0.0011 0.265,0.0046 0.094,0.0036 0.185,0.0086 0.276,0.0145 l 0,-2.0543 -1.304,-0.0488 c -1.299,-0.0446 -2.187,0.1801 -2.663,0.6758 -0.307,0.3144 -0.462,0.8007 -0.462,1.4566 l 0,6.473 -1.465,0"
       id="path44"
       style="fill:#005ea8;fill-opacity:1;fill-rule:nonzero;stroke:none" /><path
       d="m 5.43125,14.7063 c 0.14102,-0.0098 0.33398,-0.0247 0.57852,-0.0438 l 0,-2.2375 C 5.85664,12.4445 5.5957,12.459 5.23281,12.4684 4.86875,12.4781 4.61953,12.3977 4.48086,12.227 4.34336,12.0566 4.27344,11.8684 4.27344,11.6625 c 0,-0.2055 0,-0.5012 0,-0.8871 l 1.8039,0 0,-1.93868 -1.8039,0 0,-8.480079 -2.73008,0 0,8.480079 -1.54336,0 0,1.93868 1.50547,0 0,0.675 c 0,1.1258 0.18945,1.9008 0.56836,2.3254 0.39805,0.6297 1.36055,0.9449 2.88515,0.9449 0.17344,0 0.33008,-0.0055 0.47227,-0.0144"
       id="path46"
       style="fill:#005ea8;fill-opacity:1;fill-rule:nonzero;stroke:none" /><path
       d="m 13.566,14.7594 2.518,0 0,-2.2867 -2.518,0 0,2.2867 z m -3.8578,0 2.5176,0 0,-2.2867 -2.5176,0 0,2.2867 z m 1.2637,-3.8871 0,-6.33871 c 0,-0.59804 0.0695,-1.04804 0.2105,-1.35117 0.2508,-0.53359 0.7387,-0.8 1.468,-0.8 0.9351,0 1.5754,0.3793 1.9203,1.13789 0.1793,0.41172 0.2688,0.95547 0.2688,1.63047 l 0,5.72152 2.7878,0 0,-10.515659 -2.6722,0 0,1.485159 C 14.9293,1.81016 14.866,1.71289 14.7637,1.55234 14.6609,1.3918 14.5383,1.25 14.3969,1.12773 13.9688,0.742188 13.5527,0.478516 13.1523,0.336719 12.7512,0.195703 12.2816,0.125 11.7434,0.125 10.1914,0.125 9.14492,0.683984 8.60664,1.80352 8.30508,2.42109 8.15508,3.33125 8.15508,4.53359 l 0,6.33871 2.81682,0"
       id="path48"
       style="fill:#005ea8;fill-opacity:1;fill-rule:nonzero;stroke:none" /><path
       d="m 26.7344,11.1176 c 0.0359,-0.0028 0.1148,-0.0078 0.2367,-0.0145 l 0,-2.81638 c -0.1738,0.01914 -0.327,0.03164 -0.4621,0.03789 -0.1356,0.00664 -0.2457,0.01055 -0.3293,0.01055 -1.1059,0 -1.8481,-0.36094 -2.2281,-1.08164 C 23.7398,6.84883 23.634,6.22461 23.634,5.38242 l 0,-5.025779 -2.7692,0 0,10.515659 2.6235,0 0,-1.83363 c 0.425,0.70117 0.7949,1.17973 1.1094,1.43753 0.5152,0.4304 1.1839,0.6461 2.007,0.6461 0.0508,0 0.0945,-0.0016 0.1297,-0.0047"
       id="path50"
       style="fill:#005ea8;fill-opacity:1;fill-rule:nonzero;stroke:none" /><path
       d="m 35.4578,14.5762 2.9723,0 0,-11.6637 7.0996,0 0,-2.555859 -10.0719,0 0,14.219559"
       id="path52"
       style="fill:#005ea8;fill-opacity:1;fill-rule:nonzero;stroke:none" /><path
       d="m 52.8359,14.7594 2.518,0 0,-2.2867 -2.518,0 0,2.2867 z M 53.7426,5.46914 C 53.5668,5.35938 53.3887,5.27148 53.2105,5.20352 53.0297,5.13633 52.7852,5.07422 52.4719,5.01602 L 51.8461,4.9 C 51.2598,4.79727 50.8383,4.67188 50.582,4.52383 50.1492,4.27344 49.9324,3.88438 49.9324,3.35703 c 0,-0.47031 0.1321,-0.80976 0.3973,-1.01797 0.2637,-0.20898 0.5863,-0.31367 0.9637,-0.31367 0.6011,0 1.1546,0.17383 1.6613,0.52109 0.5062,0.34727 0.7687,0.98086 0.7879,1.9004 l 0,1.02226 z m -4.7653,9.29026 2.5184,0 0,-2.2867 -2.5184,0 0,2.2867 z m 3.084,-8.00706 c 0.5117,0.06446 0.8785,0.14454 1.0985,0.24141 0.3961,0.1668 0.5929,0.42734 0.5929,0.78125 0,0.43125 -0.1511,0.72773 -0.4543,0.89258 -0.3035,0.16406 -0.7488,0.2457 -1.3339,0.2457 -0.6594,0 -1.1262,-0.16094 -1.3993,-0.48242 C 50.3699,8.19297 50.2395,7.87148 50.1738,7.46641 l -2.6527,0 c 0.0574,0.91953 0.3168,1.67461 0.7758,2.2664 0.7297,0.92659 1.982,1.38949 3.759,1.38949 1.1554,0 2.182,-0.2278 3.0804,-0.6848 0.8973,-0.45703 1.3461,-1.31836 1.3461,-2.58477 l 0,-4.82382 c 0,-0.33438 0.0071,-0.73985 0.0203,-1.21602 0.0192,-0.35976 0.0735,-0.6043 0.1633,-0.73281 0.0895,-0.128908 0.2246,-0.235549 0.4047,-0.318752 l 0,-0.404687 -2.9894,0 C 53.9977,0.56875 53.9398,0.767969 53.907,0.955078 53.8746,1.14063 53.8484,1.35352 53.8297,1.59141 53.448,1.17969 53.009,0.829297 52.5113,0.540234 51.916,0.198828 51.2434,0.028125 50.4922,0.028125 c -0.9574,0 -1.7481,0.272266 -2.3727,0.815625 -0.6234,0.54336 -0.9371,1.31328 -0.9371,2.31016 0,1.29297 0.5031,2.22851 1.5078,2.80703 0.5504,0.31484 1.3594,0.54062 2.4297,0.67578 l 0.9414,0.11562"
       id="path54"
       style="fill:#005ea8;fill-opacity:1;fill-rule:nonzero;stroke:none" /><path
       d="m 67.9371,10.2688 c 0.6883,-0.56958 1.0324,-1.51333 1.0324,-2.8313 l 0,-7.080859 -2.8175,0 0,6.395699 c 0,0.55235 -0.0723,0.97735 -0.22,1.27305 -0.2672,0.54063 -0.7777,0.81133 -1.532,0.81133 -0.925,0 -1.5605,-0.39649 -1.9059,-1.1875 C 62.3164,7.23164 62.2262,6.69766 62.2262,6.04805 l 0,-5.691409 -2.7492,0 0,10.496059 2.6621,0 0,-1.53434 c 0.3531,0.54062 0.6867,0.92934 1,1.16794 0.5625,0.4242 1.2765,0.636 2.1414,0.636 1.0832,0 1.9683,-0.2844 2.6566,-0.8535"
       id="path56"
       style="fill:#005ea8;fill-opacity:1;fill-rule:nonzero;stroke:none" /><path
       d="m 78.3707,3.21172 c 0.4047,0.5793 0.6078,1.32773 0.6078,2.24844 0,1.28593 -0.3246,2.20547 -0.9742,2.75859 -0.3992,0.33438 -0.8613,0.50195 -1.3891,0.50195 -0.8039,0 -1.3933,-0.30429 -1.7699,-0.91172 -0.3758,-0.6082 -0.564,-1.3621 -0.564,-2.26289 0,-0.9707 0.1906,-1.74726 0.5726,-2.32929 0.3832,-0.58203 0.9641,-0.87344 1.7422,-0.87344 0.7777,0 1.3687,0.29062 1.7746,0.86836 z m -0.6742,7.49098 c 0.4949,-0.2797 0.8965,-0.6672 1.2043,-1.16247 l 0,5.01677 2.789,0 0,-14.200359 -2.673,0 0,1.456249 C 78.6246,1.18945 78.1777,0.735547 77.6762,0.453125 c -0.502,-0.283203 -1.1254,-0.425 -1.8715,-0.425 -1.2281,0 -2.2617,0.497656 -3.1004,1.490625 -0.8406,0.99414 -1.2602,2.26836 -1.2602,3.825 0,1.79492 0.4129,3.20625 1.2407,4.23555 0.8254,1.0285 1.9304,1.543 3.3136,1.543 0.636,0 1.202,-0.1399 1.6981,-0.4196"
       id="path58"
       style="fill:#005ea8;fill-opacity:1;fill-rule:nonzero;stroke:none" /><path
       d="M 87.5203,8.2832 C 87.1313,7.88281 86.8867,7.34023 86.7867,6.65625 l 4.7363,0 c -0.0496,0.73008 -0.2929,1.2832 -0.7316,1.66172 -0.4391,0.37734 -0.9824,0.56601 -1.6305,0.56601 -0.7058,0 -1.2539,-0.19921 -1.6406,-0.60078 z m 4.1121,2.3754 c 0.7344,-0.3285 1.3383,-0.84727 1.818,-1.55508 0.4305,-0.62539 0.709,-1.34961 0.8371,-2.175 C 94.3609,6.4457 94.3918,5.75 94.3777,4.8418 l -7.6589,0 c 0.0429,-1.05469 0.4105,-1.79453 1.1003,-2.21797 0.4196,-0.26406 0.9258,-0.3961 1.5153,-0.3961 0.6269,0 1.1359,0.16133 1.5269,0.48282 0.2145,0.17343 0.4024,0.41406 0.5668,0.72343 l 2.8067,0 C 94.1602,2.80977 93.8199,2.17617 93.2152,1.5332 92.273,0.511328 90.9551,0 89.2594,0 87.8598,0 86.625,0.430859 85.5551,1.29297 c -1.0696,0.86289 -1.6043,2.26562 -1.6043,4.20976 0,1.82188 0.4824,3.21915 1.4484,4.19024 0.9664,0.97263 2.2196,1.45863 3.7606,1.45863 0.9144,0 1.7386,-0.1641 2.4726,-0.493"
       id="path60"
       style="fill:#005ea8;fill-opacity:1;fill-rule:nonzero;stroke:none" /><path
       d="m 102.182,11.1176 c 0.035,-0.0028 0.114,-0.0078 0.236,-0.0145 l 0,-2.81638 c -0.173,0.01914 -0.327,0.03164 -0.462,0.03789 -0.135,0.00664 -0.245,0.01055 -0.328,0.01055 -1.106,0 -1.8491,-0.36094 -2.228,-1.08164 -0.2129,-0.40469 -0.3195,-1.02891 -0.3195,-1.8711 l 0,-5.025779 -2.7692,0 0,10.515659 2.6242,0 0,-1.83363 c 0.425,0.70117 0.795,1.17973 1.1105,1.43753 0.514,0.4304 1.183,0.6461 2.007,0.6461 0.051,0 0.093,-0.0016 0.129,-0.0047"
       id="path62"
       style="fill:#005ea8;fill-opacity:1;fill-rule:nonzero;stroke:none" /><path
       d="m 104.573,14.5277 2.701,0 0,-7.67028 3.469,3.96598 3.418,0 -3.769,-3.91754 3.915,-6.549219 -3.346,0 -2.548,4.492189 -1.139,-1.1832 0,-3.308989 -2.701,0 0,14.171059"
       id="path64"
       style="fill:#005ea8;fill-opacity:1;fill-rule:nonzero;stroke:none" /><path
       d="m 118.903,10.8723 0,-6.33871 c 0,-0.59804 0.069,-1.04804 0.211,-1.35117 0.25,-0.53359 0.739,-0.8 1.469,-0.8 0.934,0 1.575,0.3793 1.919,1.13789 0.178,0.41172 0.269,0.95547 0.269,1.63047 l 0,5.72152 2.788,0 0,-10.515659 -2.672,0 0,1.485159 C 122.861,1.81016 122.797,1.71289 122.694,1.55234 122.592,1.3918 122.469,1.25 122.329,1.12773 121.899,0.742188 121.485,0.478516 121.083,0.336719 120.682,0.195703 120.212,0.125 119.674,0.125 c -1.552,0 -2.597,0.558984 -3.136,1.67852 -0.302,0.61757 -0.452,1.52773 -0.452,2.73007 l 0,6.33871 2.817,0"
       id="path66"
       style="fill:#005ea8;fill-opacity:1;fill-rule:nonzero;stroke:none" /><path
       d="m 137.304,10.2688 c 0.689,-0.56958 1.033,-1.51333 1.033,-2.8313 l 0,-7.080859 -2.817,0 0,6.395699 c 0,0.55235 -0.072,0.97735 -0.221,1.27305 -0.267,0.54063 -0.779,0.81133 -1.531,0.81133 -0.926,0 -1.56,-0.39649 -1.906,-1.1875 -0.18,-0.41758 -0.268,-0.95156 -0.268,-1.60117 l 0,-5.691409 -2.75,0 0,10.496059 2.662,0 0,-1.53434 c 0.352,0.54062 0.686,0.92934 1,1.16794 0.563,0.4242 1.278,0.636 2.142,0.636 1.083,0 1.968,-0.2844 2.656,-0.8535"
       id="path68"
       style="fill:#005ea8;fill-opacity:1;fill-rule:nonzero;stroke:none" /><path
       d="m 147.737,3.21172 c 0.405,0.5793 0.607,1.32773 0.607,2.24844 0,1.28593 -0.325,2.20547 -0.974,2.75859 -0.399,0.33438 -0.862,0.50195 -1.389,0.50195 -0.805,0 -1.395,-0.30429 -1.771,-0.91172 -0.376,-0.6082 -0.563,-1.3621 -0.563,-2.26289 0,-0.9707 0.19,-1.74726 0.574,-2.32929 0.381,-0.58203 0.963,-0.87344 1.74,-0.87344 0.778,0 1.371,0.29062 1.776,0.86836 z m -0.675,7.49098 c 0.495,-0.2797 0.897,-0.6672 1.205,-1.16247 l 0,5.01677 2.788,0 0,-14.200359 -2.672,0 0,1.456249 c -0.392,-0.62344 -0.84,-1.077343 -1.341,-1.359765 -0.502,-0.283203 -1.125,-0.425 -1.872,-0.425 -1.228,0 -2.261,0.497656 -3.101,1.490625 -0.838,0.99414 -1.259,2.26836 -1.259,3.825 0,1.79492 0.413,3.20625 1.24,4.23555 0.826,1.0285 1.931,1.543 3.314,1.543 0.636,0 1.203,-0.1399 1.698,-0.4196"
       id="path70"
       style="fill:#005ea8;fill-opacity:1;fill-rule:nonzero;stroke:none" /><path
       d="m 156.885,8.2832 c -0.388,-0.40039 -0.632,-0.94297 -0.732,-1.62695 l 4.736,0 c -0.049,0.73008 -0.294,1.2832 -0.731,1.66172 -0.439,0.37734 -0.982,0.56601 -1.63,0.56601 -0.707,0 -1.254,-0.19921 -1.643,-0.60078 z m 4.114,2.3754 c 0.733,-0.3285 1.338,-0.84727 1.816,-1.55508 0.432,-0.62539 0.711,-1.34961 0.838,-2.175 0.074,-0.48282 0.103,-1.17852 0.092,-2.08672 l -7.66,0 c 0.042,-1.05469 0.41,-1.79453 1.101,-2.21797 0.418,-0.26406 0.924,-0.3961 1.516,-0.3961 0.627,0 1.134,0.16133 1.525,0.48282 0.214,0.17343 0.402,0.41406 0.566,0.72343 l 2.807,0 C 163.527,2.80977 163.186,2.17617 162.581,1.5332 161.639,0.511328 160.321,0 158.625,0 c -1.4,0 -2.634,0.430859 -3.705,1.29297 -1.07,0.86289 -1.604,2.26562 -1.604,4.20976 0,1.82188 0.483,3.21915 1.449,4.19024 0.966,0.97263 2.22,1.45863 3.761,1.45863 0.914,0 1.739,-0.1641 2.473,-0.493"
       id="path72"
       style="fill:#005ea8;fill-opacity:1;fill-rule:nonzero;stroke:none" /><path
       d="m 171.625,0.175391 68.4191,0 0,70.1715 -68.4191,0 0,-70.1715 z"
       id="path74"
       style="fill:#005ea8;fill-opacity:1;fill-rule:nonzero;stroke:none" /><path
       d="m 232.057,26.5582 4.546,-14.6488 -13.619,-4.63792 -4.544,14.64962 13.617,4.6371 z m -16.238,-13.2734 2.443,-7.87855 -7.324,-2.49453 -2.443,7.87888 7.324,2.4942 z m -31.89,53.0218 -8.132,0 0,-7.8207 8.132,0 0,7.8207 z m -8.132,-44.1 8.132,0 0,32.4125 -8.132,0 0,-32.4125 z m 25.483,44.2782 c -4.447,0 -7.252,-0.9719 -8.414,-2.9153 -1.108,-1.3082 -1.66,-3.6972 -1.66,-7.1664 l 0,-2.0808 -4.391,0 0,-5.977 4.503,0 0,-26.1387 7.964,0 0,26.1387 5.261,0 0,5.977 -5.261,0 0,2.7351 c 0,0.6344 0.201,1.2145 0.605,1.7406 0.403,0.5243 1.135,0.7723 2.194,0.7426 1.06,-0.0293 1.815,-0.0738 2.266,-0.1328 l 0,6.8988 c -0.714,0.0586 -1.276,0.1039 -1.688,0.1332 -0.413,0.0301 -0.873,0.045 -1.379,0.045 m 14.339,-0.4465 -8.021,0 0,-43.8317 8.021,0 0,43.8317"
       id="path76"
       style="fill:#ffffff;fill-opacity:1;fill-rule:nonzero;stroke:none" /></g></svg>